#!OML:ASF E:\Style4\Style4.ASF
:FULLY-SPECIFIED
:DEGREES
3183
root -1.45493 16.7405 -2.04167 7.40009 21.6413 2.95612
lowerback 17.305 3.78098 0.94069
upperback 9.96581 5.2031 -0.718983
thorax 1.14017 2.73297 -2.09807
lowerneck -1.08882 -4.17296 -4.38939
upperneck -9.73669 -5.24276 5.36162
head -2.66043 -2.6127 2.60183
rclavicle 1.29608e-013 -4.21423e-014
rhumerus 55.9389 14.0007 -8.62308
rradius 79.4429
rwrist -84.9408
rhand -14.8198 16.7994
rfingers 7.12502
rthumb 11.3385 -12.8741
lclavicle 1.29608e-013 -4.21423e-014
lhumerus 52.0458 -12.5604 9.02791
lradius 86.2324
lwrist 80.145
lhand -1.56881 28.6683
lfingers 7.12502
lthumb 24.0869 57.1764
rfemur -37.342 -15.4302 22.6081
rtibia 57.2647
rfoot -27.2207 -19.7998
rtoes -6.83103
lfemur -40.9936 -2.42923 -16.7193
ltibia 49.468
lfoot -13.7206 -8.05331
ltoes -11.6938
3184
root -1.44484 16.7372 -2.03282 7.21631 21.6098 2.92391
lowerback 17.3332 3.76847 0.98909
upperback 9.96143 5.1939 -0.697694
thorax 1.1228 2.72961 -2.1036
lowerneck -1.14434 -4.17984 -4.40671
upperneck -9.6477 -5.25367 5.34856
head -2.61963 -2.6168 2.59594
rclavicle -1.27222e-014 2.06736e-014
rhumerus 55.5785 14.0718 -8.35694
rradius 80.3259
rwrist -84.9496
rhand -15.0082 16.7285
rfingers 7.12502
rthumb 11.1569 -12.9548
lclavicle -1.27222e-014 2.06736e-014
lhumerus 51.7512 -12.7026 8.73066
lradius 87.1539
lwrist 80.3034
lhand -1.73614 28.7244
lfingers 7.12502
lthumb 23.9264 57.2537
rfemur -37.0787 -15.469 22.548
rtibia 57.2458
rfoot -27.3078 -19.6834
rtoes -6.7202
lfemur -40.793 -2.48845 -16.7002
ltibia 49.5253
lfoot -13.8562 -7.99366
ltoes -11.9518
3185
root -1.43388 16.7366 -2.0234 7.07075 21.6005 2.85516
lowerback 17.348 3.74112 1.13344
upperback 9.91604 5.17792 -0.706678
thorax 1.0796 2.72686 -2.19395
lowerneck -1.20977 -4.19675 -4.44214
upperneck -9.57783 -5.27043 5.42539
head -2.58072 -2.62558 2.6237
rclavicle 1.39149e-014 -3.97569e-014
rhumerus 55.1272 14.1993 -8.08188
rradius 81.2605
rwrist -84.9694
rhand -15.428 17.0135
rfingers 7.12502
rthumb 10.752 -12.6914
lclavicle 1.39149e-014 -3.97569e-014
lhumerus 51.4566 -12.8908 8.43273
lradius 88.1501
lwrist 80.4323
lhand -1.95269 28.7726
lfingers 7.12502
lthumb 23.7188 57.329
rfemur -36.8452 -15.5046 22.538
rtibia 57.1998
rfoot -27.3751 -19.5975
rtoes -6.5683
lfemur -40.6482 -2.60079 -16.6085
ltibia 49.5627
lfoot -13.8688 -8.06861
ltoes -10.8008
3186
root -1.4227 16.7413 -2.01155 6.93512 21.5793 2.77915
lowerback 17.3207 3.73174 1.28294
upperback 9.8601 5.18575 -0.710665
thorax 1.04785 2.7358 -2.2829
lowerneck -1.20562 -4.21641 -4.44291
upperneck -9.56378 -5.29446 5.46347
head -2.57452 -2.63869 2.63646
rclavicle -1.27222e-014 -1.90833e-014
rhumerus 54.5205 14.3246 -7.84391
rradius 82.3546
rwrist -85.1302
rhand -15.7224 17.169
rfingers 7.12502
rthumb 10.468 -12.5503
lclavicle -1.27222e-014 -1.90833e-014
lhumerus 51.2108 -13.0769 8.10457
lradius 89.1164
lwrist 80.5693
lhand -2.25501 28.6438
lfingers 7.12502
lthumb 23.4288 57.2375
rfemur -36.6302 -15.536 22.5512
rtibia 57.1388
rfoot -27.3214 -19.6647
rtoes -6.88431
lfemur -40.5063 -2.75208 -16.4775
ltibia 49.5744
lfoot -13.6593 -8.34024
ltoes -7.72185
3187
root -1.41024 16.7443 -1.99682 6.83082 21.536 2.81214
lowerback 17.2366 3.74961 1.27674
upperback 9.83643 5.20752 -0.704792
thorax 1.06545 2.74597 -2.2714
lowerneck -1.19459 -4.24805 -4.49522
upperneck -9.56595 -5.33402 5.51959
head -2.5726 -2.65835 2.66538
rclavicle -9.97899e-014 3.4191e-014
rhumerus 54.0399 14.3804 -7.58641
rradius 83.3478
rwrist -85.2416
rhand -15.7761 17.2268
rfingers 7.12502
rthumb 10.4162 -12.4952
lclavicle -9.97899e-014 3.4191e-014
lhumerus 50.9733 -13.2161 7.81702
lradius 90.0718
lwrist 80.7846
lhand -2.49018 28.6467
lfingers 7.12502
lthumb 23.2032 57.269
rfemur -36.3949 -15.5781 22.4388
rtibia 57.0834
rfoot -27.3721 -19.6074
rtoes -6.99577
lfemur -40.3064 -2.87916 -16.4964
ltibia 49.5671
lfoot -13.6272 -8.42376
ltoes -6.15965
